<svg width="14" height="11" fill="none" xmlns="http://www.w3.org/2000/svg"><path fill-rule="evenodd" clip-rule="evenodd" d="M14.001 5.67a.54.54 0 0 0-.146-.372.488.488 0 0 0-.354-.154H1.708l3.147-3.308a.529.529 0 0 0 .147-.372.55.55 0 0 0-.147-.372A.5.5 0 0 0 4.5.937a.48.48 0 0 0-.354.155l-4 4.205A.528.528 0 0 0 0 5.67a.55.55 0 0 0 .147.372l4 4.206a.5.5 0 0 0 .354.154.48.48 0 0 0 .354-.154.529.529 0 0 0 .147-.373.55.55 0 0 0-.147-.372L1.708 6.195H13.5c.133 0 .26-.055.354-.154A.54.54 0 0 0 14 5.67Z" fill="#A9A9A9"/></svg>